<svg width="1024" height="1024" viewBox="0 0 1024 1024" fill="none" xmlns="http://www.w3.org/2000/svg">
<rect width="1024" height="1024" rx="102.4" fill="#0D6EFD"/>
<path d="M166.919 690.722C220.312 804.032 356.111 853.971 469.641 801.031C583.45 747.961 632.829 612.128 579.718 498.231L566.121 469.071C544.251 422.172 564.587 366.233 611.45 344.381C658.319 322.525 714.236 342.907 736.105 389.806C742.363 403.226 758.311 409.038 771.721 402.785L844.572 368.814C857.988 362.558 863.781 346.608 857.523 333.188C804.412 219.291 668.614 169.8 554.798 222.873C440.989 275.943 391.606 411.785 444.717 525.683L458.314 554.843C480.187 601.748 459.845 657.674 412.989 679.523C366.126 701.376 310.209 681.01 288.337 634.105C282.079 620.684 266.131 614.873 252.721 621.126L179.87 655.097C166.464 661.357 160.661 677.302 166.919 690.722Z" fill="white"/>
</svg>
